# xmcd
#
# Track frame offsets:
#	150
#	15975
#	27900
#	40275
#	56700
#	76050
#	98100
#	128250
#	142800
#	160200
#	178050
#	192900
#
# Disc length: 2734 seconds
#
# Revision: 0
# Processed by: cddbd v1.5.2PL0 Copyright (c) Steve Scherf et al.
# Submitted via: EZCDAudioConverter 8.3.2.1
#
DISCID=8a0aac0c
DTITLE=Θεοδωράκης Μίκης - Της εξορίας-LP 1976, Μ. Θεοδωράκης
DYEAR=1976
DGENRE=Έντεχνη λαϊκή
TTITLE0=Της εξορίας (Θάλασσες μάς ζώνουν)[στ. Μ. Θεοδωράκης]
TTITLE1=Χτύπα, χτύπα [στ. Μ. Θεοδωράκης]
TTITLE2=Ύμνος του ΕΛΑΝ [στ. Π. Λαμψίδης]
TTITLE3=Ελ Ζαατάρ [στ. Γ. Νεγρεπόντης]
TTITLE4=Της φυλακής [στ. Γ. Νεγρεπόντης]
TTITLE5=Πέτρουλας [στ. Μ. Θεοδωράκης]
TTITLE6=Έφτασες αργά [στ. Μ. Αναγνωστάκης]
TTITLE7=Δεν έφταιγε ο ίδιος [στ. Μ. Αναγνωστάκης]
TTITLE8=Ήτανε νέοι [στ. Μ. Αναγνωστάκης]
TTITLE9=Κάθε πρωΐ [στ. Μ. Αναγνωστάκης]
TTITLE10=Μού μιλάτε για κείνον [στ. Γ. Νεγρεπόντης]
TTITLE11=Μη χάνεις το θάρρος σου [στ. Θ. Λειβαδίτης]
EXTD=
EXTT0=
EXTT1=
EXTT2=
EXTT3=
EXTT4=
EXTT5=
EXTT6=
EXTT7=
EXTT8=
EXTT9=
EXTT10=
EXTT11=
PLAYORDER=
